<?xml version="1.0" encoding="utf-8"?>
<!-- Generator: Adobe Illustrator 18.0.0, SVG Export Plug-In . SVG Version: 6.00 Build 0)  -->
<!DOCTYPE svg PUBLIC "-//W3C//DTD SVG 1.1//EN" "http://www.w3.org/Graphics/SVG/1.1/DTD/svg11.dtd">
<svg version="1.1" id="Layer_1" xmlns="http://www.w3.org/2000/svg" xmlns:xlink="http://www.w3.org/1999/xlink" x="0px" y="0px"
	 viewBox="98.2 31.7 245.2 74.3" style="enable-background:new 98.2 31.7 245.2 74.3;" xml:space="preserve">
<g>
	<path style="fill:#111111;" d="M125.1,32.3v29.3h-7.9l-10.8-19.8h-1.1v19.8h-5.6V32.3h7.9l10.8,19.8h1.1V32.3H125.1z"/>
	<path style="fill:#111111;" d="M149.3,51.7h-15.1c0.2,3.6,1.9,5.7,5.1,5.7c2.2,0,3.4-0.8,3.9-2.2h5.9c-0.8,4.2-4.1,7-9.9,7
		c-6.7,0-10.8-4.4-10.8-11.2s4.1-11,10.6-11c6.4,0,10,4.2,10.2,10V51.7z M134.4,47.9h9c-0.3-2.2-1.7-3.6-4.4-3.6
		C136.3,44.3,134.9,45.7,134.4,47.9z"/>
	<path style="fill:#111111;" d="M167.5,46.2l2.6,8.7h1.1l1.8-14.5h5.4l-2.9,21.1h-7.4l-3-9.9H164l-3,9.9h-7.4l-2.9-21.1h5.4
		l1.8,14.5h1.1l2.6-8.7H167.5z"/>
	<path style="fill:#111111;" d="M211.2,51c0,6.3-3.3,11.1-9,11.1c-2.9,0-4.8-1-5.9-2.5h-1.1v1.9h-5.6V31.7h5.7v10.7h1.1
		c1.1-1.5,2.8-2.5,5.7-2.5C207.8,40,211.2,44.7,211.2,51z M205.4,51c0-3.5-1.6-6.3-5-6.3c-3.6,0-5.1,2.9-5.1,6.3s1.6,6.3,5.1,6.3
		C203.9,57.4,205.4,54.5,205.4,51z"/>
	<path style="fill:#111111;" d="M228.5,45.8h-2c-4.4,0-6.5,2.3-6.5,6.5v9.3h-5.7V40.5h5.6v2.4h1.1c0.7-1,2.3-2.4,5.7-2.4h2
		L228.5,45.8L228.5,45.8z"/>
	<path style="fill:#111111;" d="M243.6,59.8h-1.1c-1.3,1.5-3.1,2.3-5.9,2.3c-4.8,0-7.5-3.3-7.5-7c0-3.3,2.3-7,8.6-7h5.6v-0.5
		c0-2.2-1.3-3.3-3.8-3.3c-2.3,0-3.4,0.8-3.6,2.3h-5.7c0.1-4.1,3.9-6.6,9-6.6c5.7,0,9.6,2.3,9.6,7.9v13.7h-5.3L243.6,59.8L243.6,59.8
		z M243.4,53.1v-1.3h-4.5c-2.5,0-3.9,0.9-3.9,2.8s1.4,2.9,3.7,2.9C241.4,57.5,243.4,55.7,243.4,53.1z"/>
	<path style="fill:#111111;" d="M267.4,61.6v-12c0-2.9-1.4-4.6-4.1-4.6c-2.9,0-4.7,2.5-4.7,5.3v11.2h-5.7V40.5h5.6v1.9h1.1
		c1.3-1.6,3.2-2.5,5.9-2.5c5.3,0,7.8,3.2,7.8,8.7v13H267.4z"/>
	<path style="fill:#111111;" d="M290.6,42.4h1.1V31.7h5.7v29.8h-5.6v-1.9h-1.1c-1.1,1.4-2.9,2.5-5.9,2.5c-5.6,0-9-4.7-9-11.1
		s3.3-11.1,9-11.1C287.8,40,289.5,40.9,290.6,42.4z M291.9,51c0-3.3-1.6-6.3-5.1-6.3c-3.5,0-5,2.8-5,6.3s1.6,6.3,5,6.3
		C290.3,57.4,291.9,54.4,291.9,51z"/>
	<path style="fill:#111111;" d="M118.5,90.3c-0.5,4.5-4.4,7.7-9.6,7.7c-6.5,0-10.6-4.4-10.6-11.1s4.1-11.1,10.6-11.1
		c5.3,0,9,2.9,9.5,7.3h-5.7c-0.5-1.6-1.6-2.5-3.8-2.5c-3.6,0-4.9,2.8-4.9,6.2c0,3.5,1.4,6.3,4.9,6.3c2.3,0,3.6-1.1,3.9-2.9
		L118.5,90.3L118.5,90.3z"/>
	<path style="fill:#111111;" d="M142,86.8c0,6.6-4.2,11.1-10.9,11.1c-6.6,0-10.9-4.5-10.9-11.1s4.2-11.1,10.9-11.1
		C137.8,75.7,142,80.2,142,86.8z M136.2,86.8c0-3.3-1.6-6.3-5.2-6.3c-3.6,0-5.2,2.9-5.2,6.3c0,3.4,1.6,6.3,5.2,6.3
		C134.7,93.2,136.2,90.2,136.2,86.8z"/>
	<path style="fill:#111111;" d="M176.3,84.1v13.3h-5.7V85.2c0-2.8-0.9-4.4-3.2-4.4c-2.6,0-3.9,2-3.9,4.8v11.8h-5.7V85.2
		c0-2.7-0.9-4.4-3.2-4.4c-2.7,0-3.9,2.4-3.9,5.2v11.4h-5.7V76.3h5.6v1.9h1.1c1-1.6,2.8-2.5,5.3-2.5c2.5,0,4.2,0.8,5.4,2.5h1.1
		c1.3-1.6,3.2-2.5,5.7-2.5C174,75.7,176.3,79,176.3,84.1z"/>
	<rect x="180.2" y="66.2" style="fill:#111111;" width="5.9" height="5.1"/>
	<rect x="337.5" y="92" style="fill:#111111;" width="5.9" height="5.1"/>
	<rect x="180.2" y="76.2" style="fill:#111111;" width="5.7" height="21.1"/>
	<path style="fill:#111111;" d="M204.5,97.3v-12c0-2.9-1.4-4.6-4.1-4.6c-2.9,0-4.7,2.5-4.7,5.3v11.2H190V76.2h5.6v1.9h1.1
		c1.3-1.6,3.2-2.5,5.9-2.5c5.3,0,7.8,3.2,7.8,8.7v13C210.3,97.3,204.5,97.3,204.5,97.3z"/>
	<path style="fill:#111111;" d="M234.6,76.2v20.1c0,6-4.4,9.7-10.6,9.7c-5.8,0-9.7-2.5-10.2-7.1h5.7c0.3,1.7,1.7,2.6,4.4,2.6
		c3.6,0,4.9-2.5,4.9-5.7v-1.2h-1.1c-1,1.3-2.6,2.5-5.5,2.5c-5.6,0-9.2-4.4-9.2-10.6c0-6.2,3.6-10.7,9.3-10.7c2.9,0,4.8,1.2,5.7,2.5
		h1.1v-1.9H234.6z M229,86.4c0-3.3-1.8-5.9-5.2-5.9c-3.2,0-5,2.5-5,5.9s1.8,5.9,5,5.9C227.3,92.2,229,89.6,229,86.4z"/>
	<path style="fill:#111111;" d="M256.6,82c-0.3-1.4-1.6-1.9-3.4-1.9c-1.8,0-3.1,0.5-3.1,1.8c0,1.1,0.8,1.4,2.3,1.7l3.8,0.6
		c4,0.6,6.8,2.6,6.8,6.8c0,3.5-3.2,6.9-9.4,6.9c-6.4,0-9.5-2.8-9.9-7.2h5.7c0.3,1.9,1.8,2.7,4.2,2.7c2.3,0,3.6-0.8,3.6-2.3
		c0-1.4-1-2-3-2.3l-4.1-0.7c-3.3-0.6-5.7-2.2-5.7-5.9c0-3.6,2.7-6.6,9-6.6c5.3,0,8.5,2.6,9,6.3H256.6z"/>
	<path style="fill:#111111;" d="M286.4,86.8c0,6.6-4.2,11.1-10.9,11.1c-6.6,0-10.9-4.5-10.9-11.1s4.2-11.1,10.9-11.1
		C282.2,75.7,286.4,80.2,286.4,86.8z M280.6,86.8c0-3.3-1.6-6.3-5.2-6.3c-3.6,0-5.2,2.9-5.2,6.3c0,3.4,1.6,6.3,5.2,6.3
		C279,93.2,280.6,90.2,280.6,86.8z"/>
	<path style="fill:#111111;" d="M310,86.8c0,6.6-4.2,11.1-10.9,11.1c-6.6,0-10.9-4.5-10.9-11.1s4.2-11.1,10.9-11.1
		C305.8,75.7,310,80.2,310,86.8z M304.2,86.8c0-3.3-1.6-6.3-5.2-6.3c-3.6,0-5.2,2.9-5.2,6.3c0,3.4,1.6,6.3,5.2,6.3
		C302.7,93.2,304.2,90.2,304.2,86.8z"/>
	<path style="fill:#111111;" d="M327.4,97.3v-12c0-2.9-1.4-4.6-4.1-4.6c-2.9,0-4.7,2.5-4.7,5.3v11.2h-5.7V76.2h5.6v1.9h1.1
		c1.3-1.6,3.2-2.5,5.9-2.5c5.3,0,7.8,3.2,7.8,8.7v13C333.2,97.3,327.4,97.3,327.4,97.3z"/>
	<rect x="189.7" y="66.6" style="fill:#111111;" width="108.8" height="4.2"/>
	<rect x="98.2" y="66.6" style="fill:#111111;" width="78.3" height="4.2"/>
	<rect x="98.2" y="101.3" style="fill:#111111;" width="112.4" height="4.2"/>
	<rect x="237.5" y="101.3" style="fill:#111111;" width="105.8" height="4.2"/>
</g>
</svg>
