<?xml version="1.0" encoding="utf-8"?>
<!-- Generator: Adobe Illustrator 18.0.0, SVG Export Plug-In . SVG Version: 6.00 Build 0)  -->
<!DOCTYPE svg PUBLIC "-//W3C//DTD SVG 1.1//EN" "http://www.w3.org/Graphics/SVG/1.1/DTD/svg11.dtd">
<svg version="1.1" id="Layer_1" xmlns="http://www.w3.org/2000/svg" xmlns:xlink="http://www.w3.org/1999/xlink" x="0px" y="0px"
	 viewBox="0 0 226.7 140.2" style="enable-background:new 0 0 226.7 140.2;" xml:space="preserve">
<g>
	<g>
		<path style="fill-rule:evenodd;clip-rule:evenodd;fill:#131313;" d="M65.3,43.5C53,39.8,22.9,31.2,22.2,52.8
			c-0.3,9.6,7.2,12.5,17.7,16.5c17.1,6.6,31,13.5,31.5,34.4c-0.6,23.8-16.6,36.2-39.1,36.4c-12,0.1-22.1-3.1-32.2-6.6l5-18.1
			c5.9,1.9,16.5,4.6,26.6,4.6c10.3,0.1,18.7-4.8,18.5-15.3c-0.2-13.5-14.7-12.8-32.5-22C6,76.8-0.3,65.8,0,52.8
			c0.2-11,4.6-19.7,10.6-25.1c14.9-13.4,42.5-9.3,59.4-2.3L65.3,43.5z"/>
		<polygon style="fill-rule:evenodd;clip-rule:evenodd;fill:#131313;" points="104.4,138.6 83.1,138.6 83.1,20.5 104.4,20.5 
			104.4,68.2 137.9,68.2 137.9,20.5 159.2,20.5 159.2,138.6 137.9,138.6 137.9,87.4 104.4,87.4 104.4,138.6 		"/>
		<g>
			<path style="fill:#131313;" d="M176.6,25c0-3.6,0.6-6.9,1.9-10c1.3-3.1,3.1-5.7,5.3-7.9c2.2-2.2,4.9-4,7.9-5.2
				c3-1.2,6.3-1.9,9.8-1.9c3.5,0,6.8,0.6,9.8,1.9c3.1,1.2,5.7,3,8,5.2c2.3,2.2,4,4.9,5.3,7.9c1.3,3.1,1.9,6.4,1.9,10
				c0,3.6-0.6,6.9-1.9,10c-1.3,3.1-3.1,5.7-5.3,7.9c-2.3,2.2-4.9,4-8,5.2c-3.1,1.2-6.3,1.9-9.8,1.9c-3.5,0-6.8-0.6-9.8-1.9
				c-3.1-1.2-5.7-3-7.9-5.2c-2.2-2.2-4-4.9-5.3-7.9C177.3,31.9,176.6,28.6,176.6,25z M182.8,25c0,2.7,0.4,5.2,1.3,7.6
				c0.9,2.3,2.2,4.4,3.8,6.1c1.6,1.8,3.6,3.1,5.9,4.1c2.3,1,4.9,1.5,7.7,1.5c2.8,0,5.4-0.5,7.7-1.5c2.3-1,4.3-2.4,5.9-4.1
				c1.7-1.8,2.9-3.8,3.8-6.1c0.9-2.3,1.3-4.9,1.3-7.6c0-2.7-0.4-5.2-1.3-7.6c-0.9-2.3-2.2-4.4-3.8-6.1c-1.7-1.8-3.6-3.1-5.9-4.1
				c-2.3-1-4.9-1.5-7.7-1.5c-2.8,0-5.4,0.5-7.7,1.5c-2.3,1-4.3,2.4-5.9,4.1c-1.7,1.8-2.9,3.8-3.8,6.1
				C183.3,19.8,182.8,22.3,182.8,25z M206.2,27.4l6.9,10.2h-7.6l-6.1-9.6h-0.9v9.6h-6.9V12.2h9.6c1.4,0,2.8,0.1,4.2,0.4
				c1.4,0.3,2.5,0.7,3.6,1.3c1,0.6,1.9,1.4,2.5,2.4c0.6,1,0.9,2.2,0.9,3.7c0,1.9-0.6,3.4-1.7,4.6c-1.1,1.2-2.6,2.1-4.6,2.5V27.4z
				 M198.6,16.9v6.3h1.9c1.6,0,2.8-0.3,3.6-0.8c0.8-0.5,1.2-1.3,1.2-2.5c0-0.9-0.3-1.6-0.9-2.2c-0.6-0.6-1.6-0.9-3-0.9H198.6z"/>
		</g>
	</g>
</g>
</svg>
